# xmcd CD database file
#
# Track frame offsets:
#	150
#	23355
#	37115
#
# Disc length: 727 seconds
#
# Revision: 0
# Processed by: cddbd v1.5PL3 Copyright (c) Steve Scherf et al.
# Submitted via: CDex 1.50
#
DISCID=1802d503
DTITLE=鈴の音 - 心の扉
DYEAR=2003
DGENRE=JPop
TTITLE0=心の扉
TTITLE1=いちご
TTITLE2=涼焼け
EXTD=YEAR: 2003
EXTT0=
EXTT1=
EXTT2=
PLAYORDER=
